<?xml version="1.0" standalone="no"?>
<!DOCTYPE svg PUBLIC "-//W3C//DTD SVG 20010904//EN"
 "http://www.w3.org/TR/2001/REC-SVG-20010904/DTD/svg10.dtd">
<svg version="1.0" xmlns="http://www.w3.org/2000/svg"
 width="977.000000pt" height="191.000000pt" viewBox="0 0 977.000000 191.000000"
 preserveAspectRatio="xMidYMid meet">
<metadata>
Created by potrace 1.16, written by Peter Selinger 2001-2019
</metadata>
<g transform="translate(0.000000,191.000000) scale(0.100000,-0.100000)"
fill="#000000" stroke="none">
<path d="M2690 1110 l0 -380 79 0 80 0 3 181 3 181 28 24 c30 25 83 32 117 14
31 -17 40 -67 40 -236 l0 -164 76 0 75 0 -3 203 c-3 231 -12 263 -77 296 -77
39 -190 35 -237 -10 l-24 -22 0 146 0 147 -80 0 -80 0 0 -380z"/>
<path d="M4160 1110 l0 -380 80 0 c62 0 80 3 80 14 0 11 8 10 37 -5 108 -55
267 15 321 140 20 49 19 165 -2 215 -39 92 -99 141 -191 156 -55 9 -77 5 -147
-25 -17 -7 -18 3 -18 129 l0 136 -80 0 -80 0 0 -380z m321 3 c56 -47 74 -127
45 -196 -46 -108 -166 -108 -212 0 -31 71 -12 147 46 197 41 34 80 33 121 -1z"/>
<path d="M8140 1110 l0 -380 80 0 80 0 0 99 c0 55 4 102 9 106 5 3 47 -42 92
-100 l82 -105 99 0 99 0 -83 101 c-46 56 -102 125 -126 154 l-42 53 124 104
125 103 -111 3 c-123 3 -113 7 -207 -76 l-61 -54 0 186 0 186 -80 0 -80 0 0
-380z"/>
<path d="M2310 1325 l0 -75 -30 0 -30 0 0 -65 c0 -65 0 -65 29 -65 l28 0 5
-138 c5 -152 19 -198 71 -236 32 -24 137 -34 180 -17 25 10 27 14 27 72 0 52
-2 60 -16 55 -46 -18 -63 -17 -83 3 -19 19 -21 33 -21 141 l0 120 60 0 60 0 0
65 0 65 -60 0 -60 0 0 75 0 75 -80 0 -80 0 0 -75z"/>
<path d="M6300 1325 l0 -75 -30 0 -30 0 0 -65 0 -65 30 0 30 0 0 -129 c0 -135
9 -181 44 -220 42 -47 133 -65 205 -40 30 11 31 12 31 74 l0 64 -35 -15 c-42
-17 -71 -6 -85 32 -6 14 -10 72 -10 130 l0 104 65 0 65 0 0 65 0 65 -65 0 -65
0 0 75 0 75 -75 0 -75 0 0 -75z"/>
<path d="M3489 1250 c-162 -26 -254 -181 -205 -344 24 -81 58 -121 131 -157
62 -30 69 -32 155 -27 77 5 98 10 137 34 72 45 73 53 17 106 l-48 46 -22 -23
c-53 -58 -158 -50 -201 14 -13 19 -23 38 -23 42 0 5 86 9 191 9 l192 0 -6 59
c-4 33 -14 78 -23 100 -39 99 -169 161 -295 141z"/>
<path d="M5568 1250 c-58 -10 -105 -38 -149 -87 -46 -53 -61 -98 -61 -177 1
-120 66 -215 171 -251 62 -21 129 -19 169 5 l32 20 0 -28 c-1 -38 -33 -106
-61 -126 -13 -9 -40 -16 -61 -16 -29 0 -44 7 -72 36 l-35 36 -50 -43 c-28 -23
-51 -46 -51 -50 0 -18 89 -81 134 -94 64 -19 102 -19 165 2 65 21 125 72 159
137 l27 51 3 293 3 292 -80 0 c-66 0 -81 -3 -81 -15 0 -14 -3 -14 -27 -1 -40
20 -82 25 -135 16z m124 -130 c60 -46 77 -158 35 -221 -12 -19 -39 -42 -60
-52 -36 -18 -38 -18 -74 0 -44 21 -83 88 -83 142 0 47 36 118 68 136 38 20 85
18 114 -5z"/>
<path d="M6906 1250 c-15 -5 -37 -17 -47 -26 -18 -16 -19 -16 -19 4 0 21 -5
22 -80 22 l-80 0 0 -260 0 -260 80 0 80 0 0 174 c0 170 1 176 24 203 21 24 32
28 83 29 l58 1 9 51 c5 29 7 54 5 57 -10 10 -86 13 -113 5z"/>
<path d="M7219 1250 c-69 -12 -167 -68 -155 -89 3 -5 27 -21 53 -35 44 -25 48
-26 79 -11 48 22 91 19 119 -10 14 -13 25 -28 25 -34 0 -5 -39 -11 -87 -13
-112 -4 -172 -31 -208 -92 -47 -81 -25 -182 47 -219 21 -10 64 -21 95 -24 54
-5 81 2 146 35 4 2 7 -3 7 -12 0 -13 13 -16 76 -16 l75 0 -3 209 c-3 195 -4
212 -24 238 -44 58 -150 90 -245 73z m119 -331 c2 -17 -6 -37 -21 -54 -44 -51
-147 -35 -147 22 0 8 11 25 25 39 22 22 32 25 83 22 53 -3 57 -5 60 -29z"/>
<path d="M7799 1249 c-163 -25 -262 -181 -216 -340 20 -65 63 -120 123 -155
90 -53 247 -40 326 26 l33 28 -45 46 c-50 51 -58 54 -82 27 -28 -33 -88 -46
-131 -28 -109 46 -101 237 11 272 36 11 87 -3 115 -31 l26 -26 28 20 c15 11
39 32 52 46 24 25 24 26 6 46 -25 28 -112 67 -160 72 -22 2 -61 1 -86 -3z"/>
<path d="M8930 1248 c-116 -18 -196 -107 -207 -229 -11 -115 35 -213 123 -265
92 -54 265 -42 344 25 l35 29 -45 46 c-50 52 -59 55 -85 26 -46 -51 -142 -45
-190 11 -48 58 -45 59 166 59 l191 0 -7 58 c-21 176 -145 268 -325 240z"/>
<path d="M9528 1237 c-45 -23 -48 -23 -48 -6 0 17 -9 19 -80 19 l-80 0 0 -260
0 -260 80 0 80 0 0 168 c0 147 2 171 19 199 22 35 63 49 115 39 33 -6 33 -6
44 46 6 29 7 56 4 60 -4 4 -25 10 -47 13 -31 5 -51 1 -87 -18z"/>
<path d="M4782 1043 c3 -187 5 -212 23 -242 33 -57 65 -73 147 -78 63 -4 79
-1 121 20 44 23 47 23 47 6 0 -17 9 -19 80 -19 l80 0 0 260 0 260 -80 0 -80 0
0 -170 c0 -200 -7 -223 -69 -240 -24 -6 -48 -7 -63 -1 -50 19 -53 32 -56 228
l-4 183 -75 0 -74 0 3 -207z"/>
</g>
</svg>
